<svg width="512" height="512" viewBox="0 0 512 512" fill="none" xmlns="http://www.w3.org/2000/svg">
  <rect x="36" y="36" width="440" height="440" rx="112" fill="#101826"/>
  <path d="M132 296C132 198.798 210.798 120 308 120H380V192H308C250.562 192 204 238.562 204 296V320H132V296Z" fill="#F4E6C8"/>
  <path d="M132 320H204L240 392L276 320H320L356 392L392 320H428L370 420H340L302 351L264 420H234L132 320Z" fill="#6EE7D8"/>
  <path d="M356 120H380C408.719 120 432 143.281 432 172V192H356V120Z" fill="#6EE7D8"/>
</svg>
